# xmcd
#
# Track frame offsets:
#	150
#	14748
#	29882
#	44587
#	58818
#	71512
#	85892
#	101096
#	112816
#	127380
#	140157
#	152048
#	166530
#	177951
#	190830
#	204254
#	218285
#	230952
#	247358
#	260030
#
# Disc length: 3663 seconds
#
# Revision: 0
# Processed by: cddbd v1.5.2PL0 Copyright (c) Steve Scherf et al.
# Submitted via: EZCDAudioConverter 5.4.0.1
#
DISCID=350e4d14
DTITLE=Ella Fitzgerald - The Legendary, Vol. 4
DYEAR=2002
DGENRE=Vocal
TTITLE0=That Was My Heart
TTITLE1=Betcha Nickel
TTITLE2=Stairway to the Stars
TTITLE3=I Want the Waiter (With the Water)
TTITLE4=That's All, Brother
TTITLE5=Out of Nowhere
TTITLE6=My Last Goodbye
TTITLE7=Billy (I Always Dream of Billy)
TTITLE8=I'm Not Complaining
TTITLE9=You're Gonna Lose Your Gal
TTITLE10=After I Say I'm Sorry
TTITLE11=My Wubba Dolly (Rubber Dolly)
TTITLE12=Sugar Blues
TTITLE13=The Starlit Hour
TTITLE14=Baby, Won't You Please Come Home
TTITLE15=Deedle-De-Dum
TTITLE16=Shake Down the Stars
TTITLE17=Gulf Coast Blues
TTITLE18=Five O'Clock Whistle
TTITLE19=So Long
EXTD=
EXTT0=
EXTT1=
EXTT2=
EXTT3=
EXTT4=
EXTT5=
EXTT6=
EXTT7=
EXTT8=
EXTT9=
EXTT10=
EXTT11=
EXTT12=
EXTT13=
EXTT14=
EXTT15=
EXTT16=
EXTT17=
EXTT18=
EXTT19=
PLAYORDER=
